<svg width="1024" height="1024" viewBox="0 0 1024 1024" xmlns="http://www.w3.org/2000/svg">
  <!-- Adaptive foreground: only inner 66% is guaranteed safe on Android round masks -->
  <g transform="translate(512,512) scale(26)" fill="none" stroke="#F8FAF6" stroke-width="1.35" stroke-linecap="round" stroke-linejoin="round">
    <path d="M0 9C0 9 -8 5 -8 -3C-8 -5 -7 -8 -6 -8C-5 -8 -4 -6 -2 -5C0 -4 1 -2 1 0"/>
    <path d="M0 9C0 9 8 5 8 -3C8 -5 7 -8 6 -8C5 -8 4 -6 2 -5C0 -4 -1 -2 -1 0"/>
    <path d="M0 0V9"/>
  </g>
</svg>
