<svg width="1024" height="1024" viewBox="0 0 1024 1024" xmlns="http://www.w3.org/2000/svg">
  <defs>
    <linearGradient id="bg" x1="0" y1="0" x2="1" y2="1">
      <stop offset="0" stop-color="#7DA67D"/>
      <stop offset="1" stop-color="#416743"/>
    </linearGradient>
    <radialGradient id="glow" cx="0.5" cy="0.38" r="0.5">
      <stop offset="0" stop-color="#c2eec0" stop-opacity="0.55"/>
      <stop offset="1" stop-color="#c2eec0" stop-opacity="0"/>
    </radialGradient>
  </defs>

  <!-- full-bleed sage canvas -->
  <rect width="1024" height="1024" fill="url(#bg)"/>
  <rect width="1024" height="1024" fill="url(#glow)"/>

  <!-- sprig -->
  <g transform="translate(512,512) scale(30)" fill="none" stroke="#F8FAF6" stroke-width="1.35" stroke-linecap="round" stroke-linejoin="round">
    <path d="M0 9C0 9 -8 5 -8 -3C-8 -5 -7 -8 -6 -8C-5 -8 -4 -6 -2 -5C0 -4 1 -2 1 0"/>
    <path d="M0 9C0 9 8 5 8 -3C8 -5 7 -8 6 -8C5 -8 4 -6 2 -5C0 -4 -1 -2 -1 0"/>
    <path d="M0 0V9"/>
  </g>
</svg>
